# File created by Blade
# Date/Time:  Tue Sep 30 19:12:23 2014
#---------------------------------------------------------
:version 1.10
:name HOM
:units
  mass 1.0
  length 1.000000
  angle deg
:documentation
     Acclaim Skeleton File
:root
   axis xyz
   order TX TY TZ RX RY RZ
   position 0.000000 0.000000 0.000000
   orientation 0 0 0
:bonedata
   begin
      id 1
      name Spine_dum
      direction 0.000000 1.000000 0.000000
      length 7.508948
      axis 0.0 0.0 0.0 xyz
   end
   begin
      id 2
      name LeftUpLeg_dum
      direction 1.000000 0.000000 0.000000
      length 3.000560
      axis 0.0 0.0 0.0 xyz
   end
   begin
      id 3
      name RightUpLeg_dum
      direction -1.000000 0.000000 0.000000
      length 3.000560
      axis 0.0 0.0 0.0 xyz
   end
   begin
      id 4
      name Spine
      direction 0.000000 1.000000 0.000000
      length 0.000000
      axis 0.0 0.0 0.0 xyz
      dof rx ry rz
   end
   begin
      id 5
      name Spine_dum1
      direction 0.000000 1.000000 0.000000
      length 13.861154
      axis 0.0 0.0 0.0 xyz
   end
   begin
      id 6
      name Spine_dum2
      direction 0.000000 1.000000 0.000000
      length 8.204781
      axis 0.0 0.0 0.0 xyz
   end
   begin
      id 7
      name Spine_dum3
      direction 0.000000 1.000000 0.000000
      length 8.204781
      axis 0.0 0.0 0.0 xyz
   end
   begin
      id 8
      name Head
      direction 0.000000 1.000000 0.000000
      length 4.527550
      axis 0.0 0.0 0.0 xyz
      dof rx ry rz
   end
   begin
      id 9
      name LeftShoulder
      direction 1.000000 0.000000 0.000000
      length 6.635956
      axis 0.0 0.0 -90.0 xyz
      dof rx ry rz
   end
   begin
      id 10
      name LeftArm
      direction 1.000000 0.000000 0.000000
      length 10.274218
      axis 0.0 0.0 -90.0 xyz
      dof rx ry rz
   end
   begin
      id 11
      name LeftForeArm
      direction 1.000000 0.000000 0.000000
      length 8.522147
      axis 0.0 0.0 -90.0 xyz
      dof ry rz rx
   end
   begin
      id 12
      name LeftHand
      direction 0.000000 0.000000 0.000000
      length 0.000000
      axis 0.0 0.0 -90.0 xyz
      dof rx ry rz
   end
   begin
      id 13
      name LeftHand_dum1
      direction 0.000000 0.000000 0.000000
      length 0.000000
      axis 0.0 0.0 -90.0 xyz
   end
   begin
      id 14
      name LeftHand_dum2
      direction 1.000000 0.000000 0.000000
      length 3.937000
      axis 0.0 0.0 -90.0 xyz
   end
   begin
      id 15
      name LeftHandThumb1
      direction 0.000000 0.000000 1.000000
      length 3.937000
      axis 0.0 0.0 -90.0 xyz
      dof rx rz ry
   end
   begin
      id 16
      name RightShoulder
      direction -1.000000 0.000000 0.000000
      length 6.635956
      axis 0.0 0.0 90.0 xyz
      dof rx ry rz
   end
   begin
      id 17
      name RightArm
      direction -1.000000 0.000000 0.000000
      length 10.274218
      axis 0.0 0.0 90.0 xyz
      dof rx ry rz
   end
   begin
      id 18
      name RightForeArm
      direction -1.000000 0.000000 0.000000
      length 8.522147
      axis 0.0 0.0 90.0 xyz
      dof ry rz rx
   end
   begin
      id 19
      name RightHand
      direction 0.000000 0.000000 0.000000
      length 0.000000
      axis 0.0 0.0 90.0 xyz
      dof rx ry rz
   end
   begin
      id 20
      name RightHand_dum1
      direction 0.000000 0.000000 0.000000
      length 0.000000
      axis 0.0 0.0 90.0 xyz
   end
   begin
      id 21
      name RightHand_dum2
      direction -1.000000 0.000000 0.000000
      length 3.937000
      axis 0.0 0.0 90.0 xyz
   end
   begin
      id 22
      name RightHandThumb1
      direction 0.000000 0.000000 1.000000
      length 3.937000
      axis 0.0 0.0 90.0 xyz
      dof rx rz ry
   end
   begin
      id 23
      name LeftUpLeg
      direction 0.000000 -1.000000 0.000000
      length 16.490845
      axis 0.0 0.0 0.0 xyz
      dof rx ry rz
   end
   begin
      id 24
      name LeftLeg
      direction 0.000000 -1.000000 0.000000
      length 14.556576
      axis 0.0 0.0 0.0 xyz
      dof rx ry rz
   end
   begin
      id 25
      name LeftFoot
      direction 0.000000 -0.258819 0.965926
      length 4.831116
      axis 15.0 0.0 0.0 xyz
      dof rx ry rz
   end
   begin
      id 26
      name LeftToeBase
      direction 0.000000 0.000000 1.000000
      length 2.952750
      axis 0.0 0.0 0.0 xyz
      dof rx ry rz
   end
   begin
      id 27
      name RightUpLeg
      direction 0.000000 -1.000000 0.000000
      length 16.490845
      axis 0.0 0.0 0.0 xyz
      dof rx ry rz
   end
   begin
      id 28
      name RightLeg
      direction 0.000000 -1.000000 0.000000
      length 14.556576
      axis 0.0 0.0 0.0 xyz
      dof rx ry rz
   end
   begin
      id 29
      name RightFoot
      direction 0.000000 -0.258819 0.965926
      length 4.831116
      axis 15.0 0.0 0.0 xyz
      dof rx ry rz
   end
   begin
      id 30
      name RightToeBase
      direction 0.000000 0.000000 1.000000
      length 2.952750
      axis 0.0 0.0 0.0 xyz
      dof rx ry rz
   end
:hierarchy
   begin
      root Spine_dum LeftUpLeg_dum RightUpLeg_dum
      Spine_dum Spine
      LeftUpLeg_dum LeftUpLeg
      RightUpLeg_dum RightUpLeg
      Spine Spine_dum1 Spine_dum2 Spine_dum3
      Spine_dum1 Head
      Spine_dum2 LeftShoulder
      Spine_dum3 RightShoulder
      LeftShoulder LeftArm
      LeftArm LeftForeArm
      LeftForeArm LeftHand
      LeftHand LeftHand_dum1 LeftHand_dum2
      LeftHand_dum1 LeftHandThumb1
      RightShoulder RightArm
      RightArm RightForeArm
      RightForeArm RightHand
      RightHand RightHand_dum1 RightHand_dum2
      RightHand_dum1 RightHandThumb1
      LeftUpLeg LeftLeg
      LeftLeg LeftFoot
      LeftFoot LeftToeBase
      RightUpLeg RightLeg
      RightLeg RightFoot
      RightFoot RightToeBase
   end

# File created by Blade
# Date/Time:  Thu Sep 25 17:43:48 2014
# Frame Rate: 120.000 fps
#------------------------------------------------------
:FULLY-SPECIFIED
:DEGREES
30
root 29.472709 30.481284 -1.818371 -296.616783 -90.640377 -44.645747
Spine -3.290750 -19.735740 9.597224
Head -34.565034 15.964039 -4.000089
LeftShoulder 2.166160 12.141488 6.730647
LeftArm 41.211920 28.346574 -67.196307
LeftForeArm -5.652798 -0.000000 71.646211
LeftHand -18.284915 -0.000000 -28.709920
LeftHandThumb1 -26.253704 0.000000 33.147579
RightShoulder -16.924114 5.113474 -28.353444
RightArm -17.899147 -27.050310 83.481019
RightForeArm -19.096499 -0.000000 56.307636
RightHand -2.768390 -0.000000 -21.781394
RightHandThumb1 -24.326973 -0.000000 -32.862282
LeftUpLeg 1.196387 1.309038 0.572751
LeftLeg 85.745012 -0.000000 -0.000000
LeftFoot 40.554459 19.857312 345.303314
LeftToeBase 24.011538 -0.000000 -0.000000
RightUpLeg -57.673792 -6.729712 3.528600
RightLeg 47.238490 -0.000000 -0.000000
RightFoot -2.594139 2.882130 -4.230729
RightToeBase -5.160887 -0.000000 0.000000
31
root 28.718791 30.254845 -1.776499 -317.666833 -91.604293 -24.092718
Spine -2.874230 -17.727641 9.145778
Head -35.101241 14.705677 -4.485617
LeftShoulder 1.403564 13.090734 5.242826
LeftArm 41.053751 28.464030 -65.644942
LeftForeArm -5.514974 -0.000000 73.296394
LeftHand -18.471109 -0.000000 -31.670415
LeftHandThumb1 -26.253704 0.000000 33.147579
RightShoulder -16.942196 6.013612 -28.580845
RightArm -14.641508 -27.313447 81.758748
RightForeArm -19.027099 -0.000000 57.705678
RightHand -3.010560 -0.000000 -22.649884
RightHandThumb1 -24.326973 -0.000000 -32.862282
LeftUpLeg -0.291951 2.380053 0.267624
LeftLeg 92.771370 -0.000000 -0.000000
LeftFoot 40.153388 19.705474 346.844678
LeftToeBase 25.115277 -0.000000 -0.000000
RightUpLeg -55.451032 -6.134900 3.052132
RightLeg 47.431540 -0.000000 -0.000000
RightFoot -8.819291 1.115679 -8.357553
RightToeBase -0.759413 -0.000000 0.000000
32
root 28.043094 30.034917 -1.758132 -322.513023 -92.707099 -19.565418
Spine -2.347644 -15.377690 8.379963
Head -36.012823 13.383197 -4.639051
LeftShoulder 0.859640 14.437819 4.887295
LeftArm 41.448182 28.146886 -63.700545
LeftForeArm -5.952253 -0.000000 76.426426
LeftHand -18.195955 -0.000000 -34.103290
LeftHandThumb1 -26.253704 0.000000 33.147579
RightShoulder -17.002494 7.115895 -28.430709
RightArm -11.170941 -27.259655 79.627784
RightForeArm -18.666282 0.000000 59.239648
RightHand -3.149100 -0.000000 -23.057049
RightHandThumb1 -24.326973 -0.000000 -32.862282
LeftUpLeg -2.381397 3.237956 0.017859
LeftLeg 100.241420 -0.000000 -0.000000
LeftFoot 38.737247 19.067633 346.196107
LeftToeBase 27.135310 -0.000000 -0.000000
RightUpLeg -54.171736 -4.899186 2.520550
RightLeg 48.176203 -0.000000 -0.000000
RightFoot -13.188956 -1.497925 -8.231683
RightToeBase -1.117498 -0.000000 0.000000
33
root 27.508893 29.870217 -1.747807 -329.197429 -93.948745 -12.613889
Spine -2.019647 -12.663949 7.980185
Head -37.350987 12.087444 -5.005387
LeftShoulder 0.636459 15.914150 5.324793
LeftArm 41.758705 26.755768 -62.583513
LeftForeArm -7.512428 -0.000000 80.225149
LeftHand -17.916857 -0.000000 -36.375737
LeftHandThumb1 -26.253704 0.000000 33.147579
RightShoulder -16.882679 8.702910 -28.120449
RightArm -7.414859 -27.097470 76.919803
RightForeArm -18.218503 0.000000 60.709664
RightHand -2.951491 0.000000 -23.225492
RightHandThumb1 -24.326973 -0.000000 -32.862282
LeftUpLeg -5.631195 4.329300 -0.043521
LeftLeg 107.549993 -0.000000 -0.000000
LeftFoot 39.107351 17.913675 347.264220
LeftToeBase 29.222791 -0.000000 -0.000000
RightUpLeg -54.468055 -2.724712 1.964522
RightLeg 50.090084 -0.000000 -0.000000
RightFoot -14.864077 -5.021721 -9.317170
RightToeBase 0.757682 -0.000000 -0.000000
34
root 27.078628 29.772660 -1.720167 -336.513865 -95.508967 -4.725712
Spine -1.651387 -9.655516 8.040965
Head -38.792232 11.007446 -5.801870
LeftShoulder 0.553367 17.200297 6.156098
LeftArm 42.161422 24.476299 -61.908810
LeftForeArm -10.583703 -0.000000 83.974695
LeftHand -17.856282 0.000000 -38.282624
LeftHandThumb1 -26.253704 0.000000 33.147579
RightShoulder -16.275383 10.745037 -27.782963
RightArm -3.418427 -26.993854 73.627251
RightForeArm -18.290090 -0.000000 62.049139
RightHand -3.400359 -0.000000 -24.713758
RightHandThumb1 -24.326973 -0.000000 -32.862282
LeftUpLeg -9.721848 5.426910 -0.060061
LeftLeg 114.744414 -0.000000 -0.000000
LeftFoot 39.440318 17.130419 347.784918
LeftToeBase 30.542179 -0.000000 -0.000000
RightUpLeg -55.171363 0.159253 1.081439
RightLeg 51.844970 -0.000000 -0.000000
RightFoot -15.550856 -6.249641 -8.398618
RightToeBase -0.949835 -0.000000 0.000000
35
root 26.771651 29.706638 -1.727684 -344.215168 -97.244020 5.072692
Spine -3.234024 -6.180244 9.021657
Head -39.034419 10.170551 -6.762003
LeftShoulder 0.268005 18.329622 7.517060
LeftArm 42.240070 22.092727 -62.209717
LeftForeArm -13.151758 -0.000000 87.664866
LeftHand -17.689498 -0.000000 -39.690581
LeftHandThumb1 -26.253704 0.000000 33.147579
RightShoulder -15.046730 12.094570 -27.837816
RightArm 0.902789 -26.692012 69.979462
RightForeArm -18.334994 -0.000000 63.293859
RightHand -4.284212 -0.000000 -26.204209
RightHandThumb1 -24.326973 -0.000000 -32.862282
LeftUpLeg -16.016762 6.625454 0.643581
LeftLeg 121.918884 -0.000000 -0.000000
LeftFoot 40.082222 15.932961 348.427830
LeftToeBase 31.704507 -0.000000 -0.000000
RightUpLeg -57.441604 3.482212 0.539858
RightLeg 53.054662 -0.000000 -0.000000
RightFoot -15.532501 -7.037629 -6.801137
RightToeBase 0.394482 -0.000000 -0.000000
36
root 26.409880 29.699697 -1.663845 -342.277590 -99.014891 3.329644
Spine -2.103181 -3.283079 8.019922
Head -40.148317 9.332811 -7.159256
LeftShoulder 0.406190 18.130318 9.176108
LeftArm 41.912952 18.596039 -62.753738
LeftForeArm -14.266936 -0.000000 91.297196
LeftHand -17.489320 -0.000000 -41.265323
LeftHandThumb1 -26.253704 0.000000 33.147579
RightShoulder -13.782027 13.839433 -27.266238
RightArm 5.643411 -25.711726 65.945827
RightForeArm -18.426553 0.000000 63.933370
RightHand -5.073583 -0.000000 -27.849016
RightHandThumb1 -24.326973 -0.000000 -32.862282
LeftUpLeg -20.838968 7.288208 0.207298
LeftLeg 127.950100 -0.000000 -0.000000
LeftFoot 41.202894 14.745349 349.146957
LeftToeBase 32.506086 -0.000000 -0.000000
RightUpLeg -57.721349 5.422494 -0.689395
RightLeg 54.129846 -0.000000 -0.000000
RightFoot -15.932888 -6.809504 -5.862455
RightToeBase -1.229757 -0.000000 0.000000
37
root 26.099098 29.728218 -1.633322 -342.725564 -100.411442 4.268667
Spine -1.352710 -0.625379 7.607495
Head -40.756307 8.485092 -7.414942
LeftShoulder 0.509224 17.215945 10.995074
LeftArm 41.323679 14.798379 -63.743126
LeftForeArm -14.341359 -0.000000 94.825072
LeftHand -17.309107 -0.000000 -40.943186
LeftHandThumb1 -26.253704 0.000000 33.147579
RightShoulder -12.197609 15.447519 -27.275691
RightArm 10.038485 -24.142823 62.270275
RightForeArm -18.506400 0.000000 64.044320
RightHand -5.692968 0.000000 -29.144304
RightHandThumb1 -24.326973 -0.000000 -32.862282
LeftUpLeg -26.477116 7.466723 0.585768
LeftLeg 133.380912 -0.000000 -0.000000
LeftFoot 42.387138 13.677657 349.628808
LeftToeBase 33.025374 -0.000000 -0.000000
RightUpLeg -57.947529 6.718939 -1.131679
RightLeg 54.503043 -0.000000 -0.000000
RightFoot -16.190989 -6.558334 -5.564246
RightToeBase -0.047529 -0.000000 0.000000
38
root 25.794617 29.810171 -1.599042 -342.884427 -101.433814 4.759545
Spine -0.455264 1.652169 7.206091
Head -41.085695 7.621360 -7.246583
LeftShoulder 0.548943 15.965223 12.683819
LeftArm 41.050132 10.588790 -64.532854
LeftForeArm -14.264152 0.000000 97.993974
LeftHand -17.194801 -0.000000 -40.577805
LeftHandThumb1 -26.253704 0.000000 33.147579
RightShoulder -9.981326 17.559110 -27.536219
RightArm 13.052945 -22.084347 58.902134
RightForeArm -17.260029 -0.000000 63.999554
RightHand -7.172535 0.000000 -31.505078
RightHandThumb1 -24.326973 -0.000000 -32.862282
LeftUpLeg -32.403853 7.277395 1.236384
LeftLeg 137.819419 -0.000000 -0.000000
LeftFoot 43.538875 13.542413 349.899975
LeftToeBase 33.367677 -0.000000 -0.000000
RightUpLeg -57.647970 7.442494 -1.330633
RightLeg 54.180754 -0.000000 -0.000000
RightFoot -16.379175 -6.512520 -5.876257
RightToeBase -1.365005 -0.000000 0.000000
39
root 25.496165 29.948235 -1.571713 -343.320286 -102.226705 5.448834
Spine 0.509210 3.749208 6.969621
Head -41.225294 6.699009 -6.994052
LeftShoulder 0.679526 14.470448 14.094651
LeftArm 41.008748 5.895375 -65.004879
LeftForeArm -14.489330 0.000000 100.845991
LeftHand -17.110057 -0.000000 -39.881197
LeftHandThumb1 -26.253704 0.000000 33.147579
RightShoulder -8.093213 19.238644 -28.079909
RightArm 16.186056 -19.271051 55.811045
RightForeArm -15.352133 -0.000000 63.180243
RightHand -6.762896 -0.000000 -31.692940
RightHandThumb1 -24.326973 -0.000000 -32.862282
LeftUpLeg -38.548798 6.990921 2.423916
LeftLeg 141.009107 -0.000000 -0.000000
LeftFoot 44.643627 13.634868 350.208970
LeftToeBase 33.561661 -0.000000 -0.000000
RightUpLeg -56.839666 7.748741 -1.211768
RightLeg 53.219060 -0.000000 -0.000000
RightFoot -16.528246 -6.407849 -6.493474
RightToeBase -0.838862 -0.000000 0.000000
40
root 25.155451 30.142447 -1.537088 -343.183001 -102.783609 5.146685
Spine 1.917261 5.524651 6.598593
Head -41.396345 5.787992 -6.638829
LeftShoulder 0.840054 12.749640 15.130708
LeftArm 41.264443 0.819725 -65.126221
LeftForeArm -15.067292 0.000000 103.157482
LeftHand -16.729526 -0.000000 -39.323080
LeftHandThumb1 -26.253704 0.000000 33.147579
RightShoulder -6.460954 20.678077 -28.664708
RightArm 19.306206 -16.331489 52.575315
RightForeArm -13.585475 -0.000000 61.753344
RightHand -5.978396 -0.000000 -31.561580
RightHandThumb1 -24.326973 -0.000000 -32.862282
LeftUpLeg -44.122978 6.611828 3.573647
LeftLeg 142.818692 -0.000000 -0.000000
LeftFoot 44.619643 12.375097 351.512668
LeftToeBase 33.876511 -0.000000 -0.000000
RightUpLeg -55.201731 7.467329 -1.037626
RightLeg 51.646312 -0.000000 -0.000000
RightFoot -16.841476 -6.105452 -7.526393
RightToeBase -1.159243 -0.000000 0.000000
41
root 24.797800 30.388170 -1.498979 -342.747648 -103.323399 4.474634
Spine 3.402905 7.077761 6.191764
Head -41.719257 5.463530 -6.482281
LeftShoulder 0.651900 11.190891 15.680296
LeftArm 42.110474 -4.353185 -64.724563
LeftForeArm -17.081762 -0.000000 104.879000
LeftHand -16.589563 -0.000000 -37.961181
LeftHandThumb1 -26.253704 0.000000 33.147579
RightShoulder -5.059128 21.952967 -29.661135
RightArm 22.147322 -13.183400 50.012691
RightForeArm -12.863556 -0.000000 60.092030
RightHand -6.909462 -0.000000 -31.428978
RightHandThumb1 -24.326973 -0.000000 -32.862282
LeftUpLeg -49.419555 6.398384 4.886204
LeftLeg 143.211662 -0.000000 -0.000000
LeftFoot 44.232596 10.723351 352.817083
LeftToeBase 33.401225 -0.000000 -0.000000
RightUpLeg -53.199626 7.165615 -1.033368
RightLeg 49.534637 -0.000000 -0.000000
RightFoot -17.090300 -5.645632 -8.375317
RightToeBase -1.242872 -0.000000 0.000000
